<?xml version="1.0" encoding="UTF-8" standalone="no"?>
<!-- Created with Inkscape (http://www.inkscape.org/) -->

<svg
   xmlns:dc="http://purl.org/dc/elements/1.1/"
   xmlns:cc="http://creativecommons.org/ns#"
   xmlns:rdf="http://www.w3.org/1999/02/22-rdf-syntax-ns#"
   xmlns:svg="http://www.w3.org/2000/svg"
   xmlns="http://www.w3.org/2000/svg"
   xmlns:sodipodi="http://sodipodi.sourceforge.net/DTD/sodipodi-0.dtd"
   xmlns:inkscape="http://www.inkscape.org/namespaces/inkscape"
   width="1000"
   height="399.332"
   viewBox="0 0 1000 399.332"
   id="svg2"
   version="1.1"
   inkscape:version="0.91 r13725"
   sodipodi:docname="Barbie 2005.svg">
  <defs
     id="defs4" />
  <sodipodi:namedview
     id="base"
     pagecolor="#ffffff"
     bordercolor="#666666"
     borderopacity="1.0"
     inkscape:pageopacity="0.0"
     inkscape:pageshadow="2"
     inkscape:zoom="0.49497475"
     inkscape:cx="480.83074"
     inkscape:cy="455.04454"
     inkscape:document-units="px"
     inkscape:current-layer="layer1"
     showgrid="false"
     units="px"
     inkscape:window-width="1366"
     inkscape:window-height="705"
     inkscape:window-x="-8"
     inkscape:window-y="-8"
     inkscape:window-maximized="1" />
  <metadata
     id="metadata7">
    <rdf:RDF>
      <cc:Work
         rdf:about="">
        <dc:format>image/svg+xml</dc:format>
        <dc:type
           rdf:resource="http://purl.org/dc/dcmitype/StillImage" />
        <dc:title></dc:title>
      </cc:Work>
    </rdf:RDF>
  </metadata>
  <g
     inkscape:label="Layer 1"
     inkscape:groupmode="layer"
     id="layer1"
     transform="translate(0,-653.03014)">
    <g
       id="g4212">
      <path
         inkscape:connector-curvature="0"
         id="path16"
         style="fill:#ec008c;fill-opacity:1;fill-rule:evenodd;stroke:none"
         d="m 763.25558,726.9389 c 11.15736,-6.75955 24.61681,-4.96463 30.03639,4.00999 5.42703,8.98208 0.80547,21.75289 -10.32206,28.49255 -11.14991,6.73967 -24.59941,4.93232 -30.02894,-4.02987 -5.4668,-8.97462 -0.82536,-21.71559 10.31461,-28.47267" />
      <path
         inkscape:connector-curvature="0"
         id="path18"
         style="fill:#ec008c;fill-opacity:1;fill-rule:evenodd;stroke:none"
         d="m 194.15531,867.28356 c 10.74966,-2.86641 27.94811,-3.85586 39.55297,-4.51714 13.84727,-0.78559 28.38565,-0.21381 41.65118,2.12805 11.21704,1.99132 25.98663,6.26234 28.12213,15.88582 3.31142,14.91627 -11.5253,27.82381 -20.05243,35.00101 -22.47135,19.04311 -81.75854,49.71095 -109.62958,55.1969 0.33065,-9.23491 6.52588,-43.49508 8.70117,-53.7699 1.3698,-6.48858 10.02373,-46.99369 11.65456,-49.92474 z m 79.88407,-45.41009 c 0.85271,-3.3313 11.53524,-10.98333 14.5185,-13.47933 5.36985,-4.51466 9.85467,-8.85529 14.56573,-13.5365 18.30474,-18.21773 36.28133,-43.94333 40.883,-71.64035 5.39968,-32.74368 -6.38914,-61.66384 -41.51446,-68.49051 -42.26275,-8.21637 -97.2093,15.10024 -131.63355,33.47458 -25.24827,13.44951 -47.79918,28.54973 -68.18225,44.30131 l -23.266888,19.10028 c -13.198409,11.22697 -23.570185,22.75477 -34.874227,35.24216 -17.041833,18.80196 -34.220398,46.673 -41.1937521,71.30969 -10.2748206,36.50259 3.768843,63.84161 33.5715401,72.25937 16.820575,4.75828 34.503807,-0.79555 41.688475,-10.89634 5.235609,-7.37858 2.575542,-15.32398 -4.126833,-18.65279 -16.149343,-8.05229 -31.540442,12.47746 -45.136619,3.16473 -5.496643,-3.72906 -7.301511,-13.02189 -6.165389,-21.50925 4.5246,-34.56347 51.098152,-78.84489 80.085423,-102.87002 28.67901,-23.74421 58.58861,-44.68167 92.62503,-61.39534 12.55701,-6.1654 25.58886,-12.0598 39.27204,-16.9946 13.85722,-4.9895 28.8605,-9.85468 44.84576,-11.36123 17.15867,-1.65073 36.77605,1.91426 34.8444,20.62671 -2.46617,23.79145 -32.70641,57.05222 -44.04028,68.35627 -2.46615,2.44626 -5.0591,4.4177 -7.41836,6.8764 -10.47867,10.76955 -44.67172,35.15266 -58.34496,39.4933 0.73835,-4.19395 2.62029,-9.67071 3.83596,-13.8771 4.04977,-14.0014 8.45752,-25.49935 14.35193,-38.50385 4.34064,-9.62348 3.12745,-20.61676 -3.4382,-26.1333 -4.37792,-3.69924 -18.74229,-10.06848 -27.08296,-7.69928 -4.13677,1.15602 -6.53581,5.35992 -8.57437,9.01191 -10.59552,19.0431 -17.46197,43.91348 -22.87161,65.25866 l -4.91242,21.55898 c -0.37788,1.70791 -0.5345,5.79745 -1.90431,6.99075 -0.58173,0.44749 -18.65527,4.14672 -21.42224,4.94226 -6.95346,2.00126 -13.38238,4.05971 -14.88643,11.11013 -1.62338,7.61476 4.91242,13.80004 9.06909,16.21895 7.29406,4.26108 12.48989,3.89315 21.57886,4.39781 -0.54444,7.6247 -2.21506,16.58689 -3.21445,24.37566 l -8.16666,74.55175 c -2.92359,2.09772 -16.50981,-0.1263 -20.20905,-0.96135 -5.96402,-1.3984 -11.54768,-3.36984 -17.365021,-4.88459 -42.981217,-11.15886 -27.443441,26.22957 -4.077112,34.7269 13.867153,5.0498 25.549073,0.6796 39.339173,-0.3205 -0.43755,5.7198 -1.77754,10.9639 -2.25236,16.878 -0.46738,5.5642 -0.7682,12.1194 0.23368,17.548 0.90244,5.1565 3.60227,8.3223 8.26362,10.546 9.19587,4.3702 20.1991,-2.5539 26.16063,-8.5748 14.01383,-14.0907 6.35185,-15.6155 5.26297,-25.7927 -0.60163,-5.4867 -0.4649,-12.3622 -0.54197,-18.05295 0.72841,-1.18487 1.03917,-0.96143 2.55317,-1.35962 l 8.18655,-2.31133 c 36.84317,-10.74043 73.84296,-26.57927 105.26905,-47.86552 7.70922,-5.2356 17.02194,-11.55762 23.44091,-18.12078 2.34185,-2.37914 4.75829,-4.20638 6.99324,-6.55569 -0.37042,2.80675 -2.57305,8.50725 -3.48544,11.74158 -3.27412,11.73911 -7.29405,27.55035 -6.58553,39.72748 1.28281,21.72382 18.4216,25.79274 34.65049,14.33354 6.75707,-4.77793 10.51597,-9.79849 16.07973,-14.97443 6.59547,-6.11816 22.51113,-26.30831 27.8437,-33.41592 2.39655,-3.15728 10.98334,-16.55706 12.67137,-18.10088 -0.90244,9.49668 -1.92171,17.70312 0.98199,26.79209 6.13804,19.19897 26.82193,20.22845 38.17321,13.33266 5.37979,-3.29153 14.04366,-13.52657 9.62346,-17.8871 -4.36051,-4.24367 -22.09098,13.38238 -13.24564,-39.46594 2.02116,-11.99268 4.81796,-23.61742 9.58619,-34.47397 2.31948,-5.24556 9.36991,-12.78076 3.50532,-21.16122 -3.64205,-5.15605 -21.68576,-13.34259 -30.54105,-3.78624 -2.80674,2.99071 -16.63661,31.50315 -20.33584,38.00913 -7.27417,12.75092 -13.984,25.05436 -21.70317,36.62938 -2.18523,3.31141 -20.59936,30.07616 -25.75542,30.92141 l -1.20323,-0.19639 c -2.29215,-5.44693 11.488,-38.90163 13.97404,-44.95265 8.74839,-21.20846 19.03316,-39.79412 30.88164,-58.54635 4.61161,-7.33383 12.98213,-22.27744 22.40175,-22.32716 4.1865,-0.0373 5.00192,4.25362 7.06037,7.44819 4.06965,6.29466 14.11078,7.37112 21.33522,2.75951 16.38303,-10.43145 7.93546,-27.38627 -3.79618,-37.05947 -13.74037,-11.32144 -31.92081,-3.60227 -44.15712,4.16662 -12.40039,7.86583 -21.70317,17.79013 -30.52116,29.11406 -4.54449,5.8074 -20.39302,28.57956 -22.93873,36.31116 l -3.54262,-11.22698 c -8.89755,-20.36319 -31.93075,-29.77534 -53.18891,-32.44536 -2.75702,-0.33064 -10.7596,-0.46489 -12.39044,-1.74769" />
      <path
         inkscape:connector-curvature="0"
         id="path20"
         style="fill:#ec008c;fill-opacity:1;fill-rule:evenodd;stroke:none"
         d="m 589.60042,930.02634 c 0.30081,-2.88381 3.45809,-11.35128 4.51715,-14.54833 6.37919,-19.3638 5.96153,-20.50987 19.80133,-38.15332 4.81547,-6.16788 12.41033,-15.08283 18.3147,-20.25877 3.8459,-3.3313 19.11021,-15.47811 25.81259,-7.62222 6.22257,7.29406 -1.03917,22.91885 -4.58427,29.25826 -12.28603,21.95674 -34.69772,48.5947 -63.8615,51.32438 z m -26.93877,-4.81796 c -8.4078,-4.77569 0.4276,-22.36445 -4.67874,-31.51061 -5.16848,-9.17847 -17.81251,-5.43945 -22.73487,5.2928 -4.4376,9.78755 -4.03982,21.70316 -0.16408,31.45343 3.68928,9.21576 10.58309,15.19718 18.70251,19.49058 -1.26292,3.93292 -5.73034,9.82733 -3.84591,14.76959 1.1759,3.07897 7.18716,6.9828 11.043,8.2743 10.04114,3.31166 17.95422,-7.77957 20.89769,-15.95618 25.74299,-0.28092 46.02165,-5.90435 65.8205,-21.54903 15.63474,-12.33326 28.07491,-27.18986 39.22482,-48.0975 9.5638,-18.03376 19.65466,-52.52762 -2.91365,-62.63836 -15.7118,-7.04049 -37.50446,-0.55191 -51.90612,7.85838 l -13.3053,8.98208 c 1.069,-5.99137 18.5981,-48.65189 21.0543,-54.52889 7.48797,-17.67329 14.4116,-36.66916 20.62671,-55.36172 5.79745,-17.45203 14.40165,-46.91414 -0.0671,-59.61782 -6.14799,-5.39969 -16.4601,-10.44885 -28.12462,-9.68066 -5.41957,0.35799 -10.98334,3.90308 -6.94352,9.06908 4.15667,5.34251 3.96275,6.22506 2.60289,15.52784 -3.04044,20.9673 -8.26362,42.34976 -13.04179,62.48175 -10.71236,45.02972 -19.47069,74.86224 -33.33785,118.63154 -0.70853,2.24241 -16.86781,54.71286 -18.90885,57.1094" />
      <path
         inkscape:connector-curvature="0"
         id="path22"
         style="fill:#ec008c;fill-opacity:1;fill-rule:evenodd;stroke:none"
         d="m 812.97646,871.25377 c -2.15539,-10.28228 21.71311,-37.43485 28.57956,-44.09745 4.30086,-4.14672 22.71498,-19.24696 27.39372,-14.8392 2.65261,2.55566 -7.82606,17.81996 -8.9423,19.37374 -4.39035,5.98391 -8.56442,11.17726 -13.19841,15.8013 -4.55443,4.55443 -27.92821,25.13142 -33.83257,23.76161 z m -32.54232,-5.69055 c -8.10947,-1.79493 -13.96411,5.35244 -14.34448,12.96471 -0.28092,5.12872 1.57367,7.72165 4.15667,10.26489 5.1486,5.06903 3.34125,2.25234 3.28407,10.72976 -0.087,17.73295 7.8559,31.71695 16.7609,40.11729 9.09893,8.58431 26.18054,13.7702 43.06824,13.73291 16.3333,-0.0298 33.10416,-5.31267 46.83706,-10.37178 28.55968,-10.46872 52.72155,-28.61933 67.93863,-45.38025 14.34447,-15.78141 24.85049,-30.43415 35.8935,-49.28333 1.66814,-2.82663 3.47549,-6.10075 4.93232,-9.35251 0.81541,-1.76757 3.45808,-9.68313 3.96275,-10.39165 4.08706,-1.08641 5.60354,0.0199 6.71977,-4.50472 2.09823,-8.57685 -5.39968,-16.89765 -13.7702,-19.55026 -5.49665,-1.76757 -16.32585,-2.81419 -13.98399,5.5762 0.84525,3.1175 3.27163,3.79619 4.08706,7.24434 0.95214,3.90309 -0.15414,6.52587 -1.47424,9.68065 -6.73966,16.39298 -16.43275,28.21164 -27.59011,40.38828 -24.94745,27.21224 -67.60051,52.48038 -104.03597,55.45122 -10.67259,0.87508 -34.60077,0.18396 -34.62812,-10.81927 15.9629,-2.72719 27.55034,-10.45879 38.21299,-17.87715 4.21384,-2.94347 12.10952,-9.23565 15.3911,-12.73102 l 10.74966,-10.68254 c 8.64397,-8.52713 20.56952,-24.40301 26.67773,-37.13404 17.13879,-35.93329 3.91304,-70.33019 -37.07686,-56.33625 -30.22284,10.32454 -74.88214,54.60596 -81.76848,88.26452" />
      <path
         inkscape:connector-curvature="0"
         id="path24"
         style="fill:#ec008c;fill-opacity:1;fill-rule:evenodd;stroke:none"
         d="m 549.83365,809.91809 c 1.09884,3.68182 -5.96153,23.83122 -7.37112,28.29864 -1.51399,4.81795 -2.91364,8.94478 -4.27102,13.7702 -1.31263,4.56438 -3.87574,11.01317 -0.0969,14.17045 1.76509,1.47422 4.37793,1.81481 6.83662,0.97949 2.70731,-0.95214 3.30147,-2.35925 4.57184,-4.70856 10.35189,-19.4334 33.50442,-37.84505 36.41806,-54.1883 2.05845,-11.66453 -3.74896,-21.17115 -12.99456,-23.01579 -12.44016,-2.52583 -31.80396,5.5737 -42.85442,10.78943 -3.7589,1.77752 -9.20582,5.42703 -12.62413,6.47614 0.66874,-13.40973 1.37974,-23.15999 -6.31207,-31.07556 -10.99329,-11.32144 -41.06945,-12.11946 -38.21298,0.85521 1.95154,8.84783 14.38176,-1.44689 8.44757,44.69907 -2.76697,21.40484 -6.97335,42.95387 -10.47867,64.24932 -3.49538,21.41231 -7.13744,42.69035 -10.58558,64.08525 -1.90182,11.65209 -4.21384,23.01405 4.1666,29.76342 11.401,9.1479 29.69829,-5.74898 31.09545,-18.84969 0.66129,-6.15543 -2.15541,-10.5259 -2.59294,-16.40291 -0.3207,-5.18341 0.5345,-12.2736 0.93226,-17.59623 1.15601,-15.20712 5.3798,-50.76004 12.01256,-62.61599 7.60482,-13.60612 18.55833,-25.1712 28.7163,-36.77605 1.58361,-1.82475 2.97083,-3.3313 4.66133,-5.02181 1.35988,-1.33998 8.07965,-8.01998 10.53586,-7.88573" />
      <path
         inkscape:connector-curvature="0"
         id="path26"
         style="fill:#ec008c;fill-opacity:1;fill-rule:evenodd;stroke:none"
         d="m 720.70196,831.66351 -11.28416,27.43351 c -8.84782,24.60686 -21.08414,77.2911 5.17594,90.38013 13.76026,6.80679 31.90092,-2.13551 40.4554,-12.83793 4.04977,-5.07899 4.66133,-8.21638 -0.35053,-13.0219 -4.72846,-4.55443 -9.29283,-2.97082 -14.65274,-0.73835 -6.53582,2.72966 -11.13997,0.34058 -11.34382,-6.56565 -0.2312,-6.84656 5.67315,-24.94745 7.99263,-31.19986 10.956,-30.17311 25.0643,-50.77993 39.2248,-77.87533 5.86458,-11.15736 6.82668,-20.28612 -3.51526,-26.37444 -4.49725,-2.64267 -9.65331,-4.13677 -15.97532,-2.72968 -6.26483,1.38971 -8.4973,4.15667 -11.17726,8.53708 -4.20638,6.9833 -2.18523,5.49664 -9.85716,9.44945 -4.39035,2.23248 -8.90501,4.29091 -13.2357,6.47615 -3.07026,1.53389 -10.25493,5.69055 -14.37431,4.21384 -3.10755,-1.10629 -4.62155,-1.80487 -7.24433,0.60411 -1.95154,1.77752 -2.7968,4.19396 -2.46616,7.76888 0.48479,5.26297 4.46743,9.89447 7.41836,12.01257 6.18776,4.48483 12.44017,2.67002 15.20962,4.46742" />
    </g>
  </g>
</svg>
